<svg width="41" height="22" viewBox="0 0 41 22" fill="none" xmlns="http://www.w3.org/2000/svg">
<path d="M20.3231 13.9737C20.5806 13.0599 20.7114 12.1147 20.7115 11.1648C20.7115 11.1302 20.7115 11.0969 20.7115 11.0623H14.9424V13.9798H17.3074C16.7057 15.4607 15.646 16.7065 14.2855 17.5322C12.9251 18.3578 11.3366 18.7192 9.75602 18.5626C8.17548 18.406 6.68724 17.7399 5.51243 16.6631C4.33762 15.5863 3.53895 14.1564 3.23506 12.5858C2.93118 11.0152 3.1383 9.38771 3.82567 7.94517C4.51303 6.50263 5.64395 5.32201 7.05039 4.57874C8.45683 3.83547 10.0637 3.5692 11.6324 3.8195C13.201 4.06981 14.6476 4.82332 15.7573 5.96809L17.7755 3.9346C16.1978 2.31754 14.1351 1.26946 11.9066 0.952548C9.67818 0.635639 7.40818 1.06757 5.4479 2.18149C3.48762 3.29541 1.94634 5.02922 1.06258 7.11463C0.178819 9.20005 0.00183457 11.5208 0.559016 13.7178C1.1162 15.9147 2.37648 17.8655 4.14484 19.268C5.91321 20.6706 8.09108 21.4469 10.3414 21.4767C12.5918 21.5066 14.7892 20.7883 16.5935 19.4331C18.3979 18.0779 19.7087 16.1613 20.3231 13.9798V13.9798V13.9737Z" fill="#006AAB"/>
<path d="M38.2689 4.39131L33.3134 1.45281C32.6345 1.04951 31.8609 0.836792 31.0728 0.836792C30.2847 0.836792 29.511 1.04951 28.8321 1.45281L23.8778 4.39131C23.2179 4.78523 22.6707 5.34504 22.2898 6.01595C21.909 6.68685 21.7076 7.44589 21.7052 8.21877V10.4412C21.6586 10.9896 21.6586 11.541 21.7052 12.0894V14.2069C21.7078 14.9799 21.9095 15.7389 22.2905 16.4098C22.6716 17.0807 23.2189 17.6405 23.8791 18.0344L28.8321 20.9753C29.5112 21.3779 30.2848 21.5902 31.0728 21.5902C31.8607 21.5902 32.6343 21.3779 33.3134 20.9753L38.2665 18.0344C38.9264 17.6404 39.4736 17.0806 39.8545 16.4097C40.2353 15.7388 40.4368 14.9798 40.4391 14.2069V8.22248C40.437 7.44955 40.2356 6.69042 39.8548 6.01947C39.4739 5.34851 38.9266 4.78876 38.2665 4.39502M39.4919 14.2155C39.4904 14.8233 39.3323 15.4202 39.0331 15.9478C38.7339 16.4755 38.3038 16.9158 37.7849 17.2256L32.8355 20.1629C32.302 20.4798 31.6939 20.6469 31.0746 20.6469C30.4553 20.6469 29.8472 20.4798 29.3137 20.1629L24.3606 17.2219C23.8414 16.9124 23.4109 16.4722 23.1114 15.9445C22.8119 15.4168 22.6538 14.8197 22.6524 14.2118V12.0524C22.6059 11.532 22.6059 11.0085 22.6524 10.4881V8.22248C22.6538 7.61443 22.812 7.01718 23.1114 6.48928C23.4109 5.96137 23.8414 5.52093 24.3606 5.21113L29.3137 2.27016C29.8474 1.95368 30.4554 1.78679 31.0746 1.78679C31.6939 1.78679 32.3018 1.95368 32.8355 2.27016L37.7898 5.21113C38.3088 5.52117 38.7389 5.9617 39.0381 6.48958C39.3374 7.01745 39.4954 7.61458 39.4968 8.22248L39.4919 14.2155Z" fill="#006AAB"/>
<path d="M38.466 14.5774C38.2881 15.0434 38.0705 15.493 37.8157 15.9212C38.1631 15.5503 38.3899 15.0815 38.466 14.5774Z" fill="#006AAB"/>
<path d="M38.3267 7.32354C38.1776 7.27392 38.0194 7.25838 37.8636 7.27803C37.7078 7.29767 37.5583 7.35202 37.426 7.43713L37.3598 7.48035L32.7352 10.5053C32.3244 10.7659 31.9859 11.1271 31.7513 11.5553C31.5166 11.9834 31.3935 12.4645 31.3934 12.9536L31.4485 18.4405C31.4538 18.6576 31.5323 18.8665 31.671 19.0328C31.8098 19.1991 32.0005 19.3128 32.2119 19.3553C32.2499 19.3344 32.2904 19.3183 32.3345 19.2948L37.2875 16.3551C37.4854 16.2363 37.6657 16.09 37.823 15.9205C38.0775 15.4928 38.2948 15.0438 38.4725 14.5784C38.4918 14.4559 38.5017 14.3321 38.5019 14.208V8.22238C38.5008 7.91473 38.4431 7.60995 38.3316 7.32354M36.3783 9.88301C36.6859 9.88301 36.9358 10.3238 36.9358 10.8707C36.9358 11.4177 36.6908 11.8585 36.3783 11.8585C36.0658 11.8585 35.8195 11.4177 35.8195 10.8707C35.8195 10.3238 36.0646 9.88301 36.3783 9.88301ZM36.3783 13.3709C36.6859 13.3709 36.9358 13.8117 36.9358 14.3587C36.9358 14.9056 36.6908 15.3464 36.3783 15.3464C36.0658 15.3464 35.8195 14.9069 35.8195 14.3587C35.8195 13.8105 36.0646 13.3709 36.3783 13.3709ZM33.9054 11.5449C34.2142 11.5449 34.463 11.9844 34.463 12.5326C34.463 13.0808 34.2179 13.5203 33.9054 13.5203C33.593 13.5203 33.3479 13.0795 33.3479 12.5326C33.3479 11.9856 33.593 11.5449 33.9054 11.5449ZM33.9054 15.0315C34.2142 15.0315 34.463 15.4723 34.463 16.0193C34.463 16.5662 34.2179 17.007 33.9054 17.007C33.593 17.007 33.3479 16.5662 33.3479 16.0193C33.3479 15.4723 33.593 15.0315 33.9054 15.0315Z" fill="#006AAB"/>
<path d="M37.3601 6.13719C37.3332 6.11867 37.3074 6.09768 37.2792 6.08039L32.336 3.13942C31.9564 2.91387 31.5237 2.79492 31.083 2.79492C30.6423 2.79492 30.2097 2.91387 29.83 3.13942L24.877 6.08039C24.7398 6.16253 24.6113 6.2585 24.4934 6.36684C24.4739 6.54424 24.5054 6.72357 24.5843 6.88339C24.6632 7.04322 24.7861 7.17678 24.9383 7.26814L24.953 7.27925L29.357 9.92267C29.8718 10.2279 30.4593 10.3863 31.0566 10.3808C31.6539 10.3754 32.2385 10.2063 32.7477 9.8918L36.9729 7.24592C37.0208 7.21349 37.0662 7.17759 37.1089 7.1385C37.2477 7.0177 37.3467 6.85724 37.3929 6.67841C37.4391 6.49958 37.4302 6.31082 37.3675 6.13719M31.303 7.13233C30.5984 7.13233 30.0286 6.80391 30.0286 6.39894C30.0286 5.99397 30.5984 5.66555 31.303 5.66555C32.0076 5.66555 32.5774 5.99397 32.5774 6.39894C32.5774 6.80391 32.0063 7.13233 31.303 7.13233Z" fill="#006AAB"/>
</svg>
